<svg width="18" height="18" viewBox="0 0 18 18" fill="none" xmlns="http://www.w3.org/2000/svg">
<path d="M8.98017 16.4262C13.0727 16.4262 16.3904 13.1085 16.3904 9.01593C16.3904 4.92336 13.0727 1.60568 8.98017 1.60568C4.8876 1.60568 1.56992 4.92336 1.56992 9.01593C1.56992 13.1085 4.8876 16.4262 8.98017 16.4262Z" fill="#5E60CE"/>
<path d="M8.9643 1.85957C10.3766 1.85957 11.7571 2.27835 12.9313 3.06296C14.1056 3.84757 15.0208 4.96276 15.5613 6.26752C16.1017 7.57227 16.2431 9.00799 15.9676 10.3931C15.6921 11.7782 15.012 13.0505 14.0134 14.0492C13.0148 15.0478 11.7425 15.7278 10.3573 16.0034C8.97222 16.2789 7.53651 16.1375 6.23175 15.597C4.927 15.0566 3.8118 14.1414 3.0272 12.9671C2.24259 11.7929 1.82381 10.4123 1.82381 9.00006C1.83112 7.10854 2.58577 5.29657 3.92329 3.95905C5.26081 2.62153 7.07277 1.86688 8.9643 1.85957ZM8.9643 0.272793C7.23975 0.279848 5.55594 0.797684 4.12545 1.76093C2.69497 2.72417 1.58193 4.08964 0.926853 5.68495C0.271778 7.28026 0.104035 9.03389 0.4448 10.7245C0.785564 12.415 1.61956 13.9667 2.8415 15.1837C4.06344 16.4006 5.61854 17.2283 7.31048 17.5622C9.00243 17.896 10.7554 17.7211 12.348 17.0595C13.9406 16.398 15.3015 15.2794 16.2589 13.8449C17.2163 12.4105 17.7273 10.7246 17.7273 9.00006C17.7273 7.85097 17.5004 6.71319 17.0596 5.65202C16.6187 4.59084 15.9727 3.62716 15.1585 2.81629C14.3443 2.00542 13.378 1.36332 12.315 0.926842C11.2521 0.490361 10.1134 0.268093 8.9643 0.272793Z" fill="#5E60CE"/>
<path d="M12.4307 6.34212L8.09876 10.6741L5.61629 8.19159L4.78039 9.0275L8.09876 12.3459L13.2666 7.17803L12.4307 6.34212Z" fill="#F2F2F2"/>
</svg>
